<mxfile host="app.diagrams.net" modified="2023-06-07T14:56:42.012Z" agent="Mozilla/5.0 (Windows NT 10.0; Win64; x64) AppleWebKit/537.36 (KHTML, like Gecko) Chrome/114.0.0.0 Safari/537.36" etag="BDHSTvWzwhFi-inZ28Cm" version="21.3.7" type="device">
  <diagram name="Page-1" id="xkfwA3A5w6t89UJR4Rd4">
    <mxGraphModel dx="882" dy="596" grid="1" gridSize="10" guides="1" tooltips="1" connect="1" arrows="1" fold="1" page="1" pageScale="1" pageWidth="850" pageHeight="1100" math="0" shadow="0">
      <root>
        <mxCell id="0" />
        <mxCell id="1" parent="0" />
        <mxCell id="jO0SSjTGBiaMF8YNECVp-7" style="edgeStyle=orthogonalEdgeStyle;rounded=0;orthogonalLoop=1;jettySize=auto;html=1;exitX=0.5;exitY=1;exitDx=0;exitDy=0;entryX=0.5;entryY=0;entryDx=0;entryDy=0;" edge="1" parent="1" source="jO0SSjTGBiaMF8YNECVp-1" target="jO0SSjTGBiaMF8YNECVp-4">
          <mxGeometry relative="1" as="geometry" />
        </mxCell>
        <mxCell id="jO0SSjTGBiaMF8YNECVp-13" style="edgeStyle=orthogonalEdgeStyle;rounded=0;orthogonalLoop=1;jettySize=auto;html=1;exitX=0.5;exitY=0;exitDx=0;exitDy=0;entryX=0;entryY=0.5;entryDx=0;entryDy=0;" edge="1" parent="1" source="jO0SSjTGBiaMF8YNECVp-1" target="jO0SSjTGBiaMF8YNECVp-10">
          <mxGeometry relative="1" as="geometry" />
        </mxCell>
        <mxCell id="jO0SSjTGBiaMF8YNECVp-1" value="Counter 1" style="rounded=1;whiteSpace=wrap;html=1;" vertex="1" parent="1">
          <mxGeometry x="80" y="200" width="120" height="60" as="geometry" />
        </mxCell>
        <mxCell id="jO0SSjTGBiaMF8YNECVp-8" style="edgeStyle=orthogonalEdgeStyle;rounded=0;orthogonalLoop=1;jettySize=auto;html=1;exitX=0.5;exitY=1;exitDx=0;exitDy=0;entryX=0.5;entryY=0;entryDx=0;entryDy=0;" edge="1" parent="1" source="jO0SSjTGBiaMF8YNECVp-2" target="jO0SSjTGBiaMF8YNECVp-5">
          <mxGeometry relative="1" as="geometry" />
        </mxCell>
        <mxCell id="jO0SSjTGBiaMF8YNECVp-14" style="edgeStyle=orthogonalEdgeStyle;rounded=0;orthogonalLoop=1;jettySize=auto;html=1;exitX=0.5;exitY=0;exitDx=0;exitDy=0;entryX=0.5;entryY=1;entryDx=0;entryDy=0;" edge="1" parent="1" source="jO0SSjTGBiaMF8YNECVp-2" target="jO0SSjTGBiaMF8YNECVp-10">
          <mxGeometry relative="1" as="geometry" />
        </mxCell>
        <mxCell id="jO0SSjTGBiaMF8YNECVp-2" value="Counter 2" style="rounded=1;whiteSpace=wrap;html=1;" vertex="1" parent="1">
          <mxGeometry x="360" y="200" width="120" height="60" as="geometry" />
        </mxCell>
        <mxCell id="jO0SSjTGBiaMF8YNECVp-9" style="edgeStyle=orthogonalEdgeStyle;rounded=0;orthogonalLoop=1;jettySize=auto;html=1;exitX=0.5;exitY=1;exitDx=0;exitDy=0;entryX=0.5;entryY=0;entryDx=0;entryDy=0;" edge="1" parent="1" source="jO0SSjTGBiaMF8YNECVp-3" target="jO0SSjTGBiaMF8YNECVp-6">
          <mxGeometry relative="1" as="geometry" />
        </mxCell>
        <mxCell id="jO0SSjTGBiaMF8YNECVp-15" style="edgeStyle=orthogonalEdgeStyle;rounded=0;orthogonalLoop=1;jettySize=auto;html=1;exitX=0.5;exitY=0;exitDx=0;exitDy=0;entryX=1;entryY=0.5;entryDx=0;entryDy=0;" edge="1" parent="1" source="jO0SSjTGBiaMF8YNECVp-3" target="jO0SSjTGBiaMF8YNECVp-10">
          <mxGeometry relative="1" as="geometry" />
        </mxCell>
        <mxCell id="jO0SSjTGBiaMF8YNECVp-3" value="Counter M" style="rounded=1;whiteSpace=wrap;html=1;" vertex="1" parent="1">
          <mxGeometry x="640" y="200" width="120" height="60" as="geometry" />
        </mxCell>
        <mxCell id="jO0SSjTGBiaMF8YNECVp-16" style="edgeStyle=orthogonalEdgeStyle;rounded=0;orthogonalLoop=1;jettySize=auto;html=1;exitX=0.5;exitY=0;exitDx=0;exitDy=0;entryX=0.5;entryY=1;entryDx=0;entryDy=0;" edge="1" parent="1" source="jO0SSjTGBiaMF8YNECVp-4" target="jO0SSjTGBiaMF8YNECVp-1">
          <mxGeometry relative="1" as="geometry" />
        </mxCell>
        <mxCell id="jO0SSjTGBiaMF8YNECVp-4" value="Shard 0 ... N" style="rounded=1;whiteSpace=wrap;html=1;" vertex="1" parent="1">
          <mxGeometry x="80" y="320" width="120" height="60" as="geometry" />
        </mxCell>
        <mxCell id="jO0SSjTGBiaMF8YNECVp-17" style="edgeStyle=orthogonalEdgeStyle;rounded=0;orthogonalLoop=1;jettySize=auto;html=1;exitX=0.5;exitY=0;exitDx=0;exitDy=0;entryX=0.5;entryY=1;entryDx=0;entryDy=0;" edge="1" parent="1" source="jO0SSjTGBiaMF8YNECVp-5" target="jO0SSjTGBiaMF8YNECVp-2">
          <mxGeometry relative="1" as="geometry" />
        </mxCell>
        <mxCell id="jO0SSjTGBiaMF8YNECVp-5" value="Shard 0 ... N" style="rounded=1;whiteSpace=wrap;html=1;" vertex="1" parent="1">
          <mxGeometry x="360" y="320" width="120" height="60" as="geometry" />
        </mxCell>
        <mxCell id="jO0SSjTGBiaMF8YNECVp-18" style="edgeStyle=orthogonalEdgeStyle;rounded=0;orthogonalLoop=1;jettySize=auto;html=1;exitX=0.5;exitY=0;exitDx=0;exitDy=0;entryX=0.5;entryY=1;entryDx=0;entryDy=0;" edge="1" parent="1" source="jO0SSjTGBiaMF8YNECVp-6" target="jO0SSjTGBiaMF8YNECVp-3">
          <mxGeometry relative="1" as="geometry" />
        </mxCell>
        <mxCell id="jO0SSjTGBiaMF8YNECVp-6" value="Shard 0 ... N" style="rounded=1;whiteSpace=wrap;html=1;" vertex="1" parent="1">
          <mxGeometry x="640" y="320" width="120" height="60" as="geometry" />
        </mxCell>
        <mxCell id="jO0SSjTGBiaMF8YNECVp-10" value="Shared counters" style="rounded=1;whiteSpace=wrap;html=1;" vertex="1" parent="1">
          <mxGeometry x="360" y="80" width="120" height="60" as="geometry" />
        </mxCell>
      </root>
    </mxGraphModel>
  </diagram>
</mxfile>
